<svg xmlns="http://www.w3.org/2000/svg" version="1.1" xmlns:xlink="http://www.w3.org/1999/xlink"
     xmlns:svgjs="http://svgjs.com/svgjs" width="1920" height="1080" preserveAspectRatio="none" viewBox="0 0 1920 1080">
    <g mask="url(&quot;#SvgjsMask2413&quot;)" fill="none">
        <path
            d="M1635.8336136124747 537.9525107905791L1494.9836674776493 718.2322207406946 1675.263377427765 859.0821668755199 1816.1133235625903 678.8024569254044z"
            fill="rgba(235, 235, 34, 1)" class="triangle-float1"></path>
        <path
            d="M2015.229,552.122C2118.011,547.73,2202.733,476.264,2249.442,384.603C2291.923,301.239,2278.788,205.227,2233.813,123.181C2186.694,37.223,2113.184,-38.939,2015.229,-42.663C1911.685,-46.599,1819.481,16.742,1765.832,105.391C1710.035,197.591,1691.044,312.122,1743.576,406.22C1797.276,502.41,1905.164,556.825,2015.229,552.122"
            fill="rgba(235, 34, 114, 1)" class="triangle-float3"></path>
        <path
            d="M885.772,1401.808C983.499,1394.387,1038.537,1300.05,1086.027,1214.316C1131.435,1132.34,1175.934,1039.282,1132.614,956.184C1086.843,868.384,984.783,829.453,885.772,830.18C788.129,830.897,696.727,876.863,645.126,959.761C590.322,1047.805,575.278,1158.248,624.864,1249.333C676.485,1344.157,778.118,1409.982,885.772,1401.808"
            fill="rgba(208, 140, 22, 1)" class="triangle-float3"></path>
        <path
            d="M749.953,392.872C834.048,391.253,905.454,340.772,950.69,269.861C1000.338,192.035,1037.943,94.287,991.22,14.67C944.852,-64.343,841.528,-74.878,749.953,-72.201C664.255,-69.696,576.75,-44.997,531.943,28.097C485.304,104.18,489.582,201.257,535.364,277.859C579.988,352.523,662.986,394.547,749.953,392.872"
            fill="rgba(117, 50, 216, 1)" class="triangle-float3"></path>
        <path
            d="M479.00924074248354 974.0367048618987L649.6297560008679 739.1977123987824 414.7907635377517 568.5771971403981 244.17024827936734 803.4161896035143z"
            fill="rgba(68, 174, 170, 1)" class="triangle-float3"></path>
        <path
            d="M280.05077278740833 636.4999982456466L7.438621704641264 679.6775212205586 50.61614467955326 952.2896723033257 323.22829576232033 909.1121493284136z"
            fill="rgba(73, 188, 138, 1)" class="triangle-float2"></path>
    </g>
    <defs>
        <mask id="SvgjsMask2413">
            <rect width="1920" height="1080" fill="#ffffff"></rect>
        </mask>
        <style>
            @keyframes float1 {
                0% {
                    transform: translate(0, 0)
                }
                50% {
                    transform: translate(-20px, 0)
                }
                100% {
                    transform: translate(0, 0)
                }
            }

            .triangle-float1 {
                animation: float1 5s infinite;
            }

            @keyframes float2 {
                0% {
                    transform: translate(0, 0)
                }
                50% {
                    transform: translate(-10px, -10px)
                }
                100% {
                    transform: translate(0, 0)
                }
            }

            .triangle-float2 {
                animation: float2 4s infinite;
            }

            @keyframes float3 {
                0% {
                    transform: translate(0, 0)
                }
                50% {
                    transform: translate(0, -20px)
                }
                100% {
                    transform: translate(0, 0)
                }
            }

            .triangle-float3 {
                animation: float3 6s infinite;
            }
        </style>
    </defs>
</svg>
